<svg xmlns="http://www.w3.org/2000/svg" viewBox="0 0 235 235"><defs><style>.cls-1{fill:#fff;stroke:#1b0d32;stroke-miterlimit:10;stroke-width:3px;}.cls-2,.cls-5{fill:#e03127;}.cls-2,.cls-3{fill-rule:evenodd;}.cls-3,.cls-4{fill:#231f20;}</style></defs><title>Asset 2</title><g id="Layer_2" data-name="Layer 2"><g id="Layer_1-2" data-name="Layer 1"><rect class="cls-1" x="1.5" y="1.5" width="232" height="232" rx="23"/><polygon class="cls-2" points="93.25 141.76 141.95 141.76 141.95 190.46 93.25 190.46 93.25 141.76 93.25 141.76"/><path class="cls-3" d="M125,119.2v9.85h-.53V119.2Zm-4-.84h3.25v.44l-3.45-.09c-.36-.92-1.72-1.6-3.33-1.6a3.7,3.7,0,0,0-3.25,1.44,3.77,3.77,0,0,1,3.44-1.58,4,4,0,0,1,3.34,1.39Zm-3.33-17.66a1.08,1.08,0,0,1,1.08,1h-.37a.91.91,0,0,0-.9-.75.92.92,0,0,0-.9.7,1.1,1.1,0,0,1,1.09-1Zm21.34,4.77h-1.41V105h.88l-.28-1.8.8,2.25Zm.21,4.08h-.45v-2.37a1,1,0,0,0-1-1.05,1.06,1.06,0,0,0-.47.12,1.16,1.16,0,0,1,1.88.9v2.4Zm-1.26-6.89a.22.22,0,0,1,.21-.21.21.21,0,0,1,.21.21.21.21,0,0,1-.21.21.21.21,0,0,1-.21-.21Zm-40.53,2.81H96V105h.89l-.29-1.8.8,2.25Zm.22,4.08h-.45v-2.37a1,1,0,0,0-1-1.05,1,1,0,0,0-.46.12,1.12,1.12,0,0,1,.72-.25,1.15,1.15,0,0,1,1.16,1.15v2.4Zm-1.26-6.89a.21.21,0,0,1,.42,0,.21.21,0,0,1-.42,0Zm38.49,13.85h-.4v-1.88a.48.48,0,0,0-.46-.5.43.43,0,0,0-.22.06.63.63,0,0,1,.45-.18.63.63,0,0,1,.63.63v1.87Zm-.75-3a.19.19,0,0,1,.2-.19.18.18,0,0,1,.19.19.19.19,0,0,1-.19.2.2.2,0,0,1-.2-.2Zm-2.44,3h-.4v-1.88a.46.46,0,0,0-.68-.44A.67.67,0,0,1,131,114a.63.63,0,0,1,.63.63v1.87Zm-.74-3a.19.19,0,0,1,.19-.19.19.19,0,0,1,.2.19.2.2,0,1,1-.39,0Zm2.13-1h-.35v-.89a.4.4,0,0,0-.4-.43.32.32,0,0,0-.19,0,.55.55,0,0,1,.94.39v.88Zm-4.88,4h-.4v-1.88a.48.48,0,0,0-.46-.5.4.4,0,0,0-.22.06.63.63,0,0,1,.45-.18.63.63,0,0,1,.63.63v1.87Zm-.75-3a.19.19,0,0,1,.2-.19.18.18,0,0,1,.19.19.19.19,0,0,1-.19.2.2.2,0,0,1-.2-.2Zm1.88-1h-.35v-.89a.4.4,0,0,0-.39-.43.35.35,0,0,0-.2,0,.55.55,0,0,1,.39-.16.54.54,0,0,1,.55.55v.88Zm-22.78,0h-.35v-.89a.4.4,0,0,0-.39-.43.35.35,0,0,0-.2,0,.55.55,0,0,1,.39-.16.54.54,0,0,1,.55.55v.88Zm-3.68,0h-.35v-.89a.4.4,0,0,0-.4-.43.32.32,0,0,0-.19,0,.55.55,0,0,1,.94.39v.88Zm-1.45,4h-.4v-1.88a.47.47,0,0,0-.45-.5.4.4,0,0,0-.22.06.63.63,0,0,1,1.07.45v1.87Zm-.74-3a.19.19,0,0,1,.19-.19.19.19,0,0,1,.2.19.2.2,0,1,1-.39,0Zm4.2,3h-.4v-1.88a.48.48,0,0,0-.46-.5.43.43,0,0,0-.22.06.63.63,0,0,1,.45-.18.63.63,0,0,1,.63.63v1.87Zm-.75-3a.19.19,0,0,1,.2-.19.18.18,0,0,1,.19.19.19.19,0,0,1-.19.2.2.2,0,0,1-.2-.2Zm3.93,3h-.4v-1.88a.47.47,0,0,0-.46-.5.43.43,0,0,0-.22.06.65.65,0,0,1,.45-.18.63.63,0,0,1,.63.63v1.87Zm-.74-3a.18.18,0,0,1,.19-.19.19.19,0,0,1,.2.19.2.2,0,0,1-.2.2.19.19,0,0,1-.19-.2ZM97,129h-.44v-2.77a.44.44,0,0,0-.43-.47.46.46,0,0,0-.32.13.65.65,0,0,1,.56-.32.63.63,0,0,1,.63.63V129Zm3.74,0h-.44v-2.77a.44.44,0,0,0-.43-.47.44.44,0,0,0-.32.13.64.64,0,0,1,.55-.32.64.64,0,0,1,.64.63V129Zm3.7,0H104v-2.77a.43.43,0,0,0-.43-.47.44.44,0,0,0-.31.13.63.63,0,0,1,1.18.31V129Zm3.67,0h-.43v-2.77a.45.45,0,0,0-.44-.47.44.44,0,0,0-.31.13.63.63,0,0,1,1.18.31V129Zm30.81,0h-.44v-2.77a.44.44,0,0,0-.43-.47.42.42,0,0,0-.31.13.62.62,0,0,1,.55-.32.63.63,0,0,1,.63.63V129Zm-3.67,0h-.44v-2.77a.44.44,0,0,0-.43-.47.46.46,0,0,0-.32.13.65.65,0,0,1,.56-.32.63.63,0,0,1,.63.63V129Zm-3.71,0h-.43v-2.77a.45.45,0,0,0-.44-.47.44.44,0,0,0-.31.13.63.63,0,0,1,1.18.31V129Zm-3.74,0h-.43v-2.77a.44.44,0,0,0-.43-.47.44.44,0,0,0-.32.13.64.64,0,0,1,.55-.32.63.63,0,0,1,.63.63V129Zm-14.3,0h-.44v-2.77a.44.44,0,0,0-.43-.47.42.42,0,0,0-.31.13.62.62,0,0,1,.55-.32.63.63,0,0,1,.63.63V129Zm4.82,0v-2.74a1,1,0,0,0-1-1.1,1,1,0,0,0-.88.53,1.23,1.23,0,0,1,1.16-.8,1.25,1.25,0,0,1,1.24,1.24V129Zm4.61,0h-.43v-2.77a.43.43,0,0,0-.43-.47.44.44,0,0,0-.31.13.63.63,0,0,1,1.18.31V129ZM113.7,139.2h-.47v-5.42a1,1,0,0,0-.9-1.1.83.83,0,0,0-.64.3,1.09,1.09,0,0,1,.9-.52,1.18,1.18,0,0,1,1.12,1.24v5.5Zm9.49,0h-.47v-5.42a1,1,0,0,0-.9-1.1.85.85,0,0,0-.65.3,1.1,1.1,0,0,1,.91-.52,1.18,1.18,0,0,1,1.12,1.24v5.5Zm-4.07,0h-.59v-5.72a1.33,1.33,0,0,0-1.3-1.42,1.29,1.29,0,0,0-.85.31,1.53,1.53,0,0,1,2.74.92v5.91Zm1-27.16,0-.29h.61l-.17-.83.48,1.12Zm.22-1.63a.2.2,0,1,1,.2.2.2.2,0,0,1-.2-.2Zm-25.7,3.66h-1.5v-.42h1l-.4-2.75.92,3.17Zm0,3.9H94.2v-2.91l-1.14-.44h1.58V118Zm47.32-3.9h-1.5v-.42h1l-.39-2.75.91,3.17Zm0,3.9h-.44v-2.91l-1.14-.44H142V118Zm-17-3.88h-1.11v-.43h.62l-.3-1.81.79,2.24Zm0,3.48h-.44V115.1l-.77-.22h1.21v2.69Zm-13.49-3.48h-1.12v-.43H111l-.31-1.81.8,2.24Zm0,3.48H111V115.1l-.76-.22h1.21v2.69ZM139,138.85h-.46V137.1l-.81-.16H139v1.91Zm-3.7,0h-.46V137.1l-.81-.16h1.27v1.91Zm-3.69,0h-.45V137.1l-.81-.16h1.26v1.91Zm-3.78,0h-.46V137.1l-.81-.16h1.27v1.91Zm-19.65,0h-.45V137.1l-.81-.16h1.26v1.91Zm-3.7,0H104V137.1l-.82-.16h1.27v1.91Zm-3.68,0h-.46V137.1l-.81-.16h1.27v1.91Zm-3.79,0h-.45V137.1l-.81-.16H97v1.91Zm42-4.15h-.46v-2.4l-.81-.15H139v2.55Zm-3.7,0h-.46v-2.4l-.81-.15h1.27v2.55Zm-3.69,0h-.45v-2.4l-.81-.15h1.26v2.55Zm-3.78,0h-.46v-2.4l-.81-.15h1.27v2.55Zm-19.65,0h-.45v-2.4l-.81-.15h1.26v2.55Zm-3.7,0H104v-2.4l-.82-.15h1.27v2.55Zm-3.68,0h-.46v-2.4l-.81-.15h1.27v2.55Zm-3.79,0h-.45v-2.4l-.81-.15H97v2.55Zm42-11.42h-.46v-2.39l-.81-.16H139v2.55Zm-3.7,0h-.46v-2.39l-.81-.16h1.27v2.55Zm-3.69,0h-.45v-2.39l-.81-.16h1.26v2.55Zm-3.78,0h-.46v-2.39l-.81-.16h1.27v2.55Zm-4.87,0h-.46v-2.39l-.81-.16h1.27v2.55Zm-9.46,0H113v-2.39l-.81-.16h1.27v2.55Zm-5.32,0h-.45v-2.39l-.81-.16h1.26v2.55Zm-3.7,0H104v-2.39l-.82-.16h1.27v2.55Zm-3.68,0h-.46v-2.39l-.81-.16h1.27v2.55Zm39.81,7.59-15.19-.53h15.18v.53ZM95.52,114.93,97,110.21h14.59v.34H97.18l-1.66,4.38ZM95,130.34H109.4v.36L95,130.34Zm14.65,8.86v-7.9h.54v7.9ZM95,118.68H109.4v.37L95,118.68ZM109.65,129v-9.41h.54V129ZM97,123.28h-.45v-2.39l-.81-.16H97v2.55ZM114.13,112l0-.29h.6l-.16-.83.48,1.12Zm.2-1.63a.2.2,0,0,1,.2-.2.2.2,0,0,1,0,.4.2.2,0,0,1-.2-.2Zm2.67.34.07-.36h.77l-.26-1.07.61,1.43Zm.36-2.08a.23.23,0,1,1,.45,0,.23.23,0,1,1-.45,0Zm-2.84,4.63,3.07-2,3.16,2v3.17h-.55v-3.06l-2.61-1.88-3.07,1.77Zm24.83,1.37-1.47-4.15-14-.34h14.34l1.63,4.49ZM110.8,130.35h13.37v.45l-13.37-.45ZM125,139.2h-.54v-7.9H125v7.9ZM93.23,129v-9.64h.3V129Zm19.84-21.57h8.53l1.64,6.66h-.46l-1.6-6.36-8.11-.29Zm2.87-2.45h3.16l2.39,1.93h-.63l-2.08-1.7-2.84-.23Zm1.5-4.82V91.51h.3v8.67Zm1.12,4.3v-1.82l-2.41-.44H119v2.26Zm-2.45,9.22,1.47-1.08,1.06.71a1.23,1.23,0,0,1,.52,1V116h-.45v-1.66a1,1,0,0,0-.45-.84l-.9-.61-1.25.84Zm.37,6.39a1.55,1.55,0,0,1,1.13-.52,1.32,1.32,0,0,1,1.19.65v3h-.55V120.4a1,1,0,0,0-1-.58,1.42,1.42,0,0,0-.8.27Zm10.3-1.41h14.41v.43l-14.41-.43Zm14.63,11.63v-10.7H142v10.7Zm.55,9.88H125.21v-.45h16.2V131.3H142v8.89Zm-17.79,0h-.68v-.45h.68v.45Zm-1.72,0h-3.1v-.45h3.1v.45Zm-4.14,0H114v-.45h4.34v.45Zm-5.39,0h-2.47v-.45h2.47v.45Zm-3.51,0H93.25v-9.37h.3v8.93h15.86v.45Z"/><path class="cls-4" d="M53.86,48.22c0-1.72,0-1.77.86-1.91.46-.05.56-.08.56-.25s-.08-.18-.32-.18l-.73,0h-.59L52,45.87c-.21,0-.32.08-.32.2s.08.19.26.21c1.28,0,1.41.22,1.41,1.94v5.12A2.81,2.81,0,0,1,53,55.18,3.47,3.47,0,0,1,50,56.37a3.15,3.15,0,0,1-2.74-1.09,4.54,4.54,0,0,1-.39-2.48V47.5c0-1.06.13-1.19,1.12-1.19.33,0,.44-.06.44-.22s-.11-.24-.29-.24a2.33,2.33,0,0,0-.33,0l-1.6.08c-.19,0-.42,0-.67,0l-1.25-.08c-.18,0-.29.08-.29.24s.11.22.43.22c1,0,1.11.13,1.11,1.19v5.84c0,1.33.16,1.87.73,2.43a5.05,5.05,0,0,0,3.48,1,4.58,4.58,0,0,0,3.27-1,2.87,2.87,0,0,0,.82-2.43V48.22Zm9.79,3.49c0-1.26-.16-1.78-.69-2.3a2.79,2.79,0,0,0-1.89-.75,3.55,3.55,0,0,0-2.46,1.27c-.08.08-.12.11-.17.11s-.11,0-.11-.24V48.68a.12.12,0,0,0-.1-.13c-.08,0-.11,0-.28.27a3.35,3.35,0,0,1-1.42.9c-.27.1-.33.13-.33.23s0,.14.17.14c.81.06.81.06.81,1v3.79c0,1-.11,1.18-.76,1.21-.4,0-.48.06-.48.24s.08.19.23.19a.56.56,0,0,0,.16,0c.62-.05,1.2-.08,1.44-.08s.76,0,1.43.08a.49.49,0,0,0,.14,0c.16,0,.24-.07.24-.19s-.08-.21-.48-.24c-.65,0-.76-.19-.76-1.21V51.45A1.49,1.49,0,0,1,58.91,50a2.68,2.68,0,0,1,1.67-.67,1.94,1.94,0,0,1,1.34.51,2.36,2.36,0,0,1,.57,1.8v3.23c0,1-.11,1.18-.77,1.21-.39,0-.47.06-.47.24s.08.19.22.19a.53.53,0,0,0,.16,0c.6-.05,1.21-.08,1.43-.08s.76,0,1.44.08a.54.54,0,0,0,.15,0c.16,0,.23-.07.23-.19s-.07-.21-.47-.24c-.65,0-.76-.19-.76-1.21v-3.2Zm4.06-6.06a.79.79,0,0,0-.76.85.74.74,0,0,0,.75.81.84.84,0,0,0,0-1.66ZM68.25,49l0-.26c0-.11,0-.17-.15-.17s-.15.05-.3.22a4.06,4.06,0,0,1-1.43.92c-.31.1-.39.14-.39.27s.08.18.22.18h.21c.55,0,.66.17.66,1v3.73c0,1-.11,1.18-.76,1.21-.4,0-.48.06-.48.24s.08.19.23.19a.47.47,0,0,0,.15,0c.61-.05,1.21-.08,1.43-.08s.77,0,1.45.08a.49.49,0,0,0,.14,0c.16,0,.24-.07.24-.19s-.08-.21-.48-.24c-.65,0-.76-.21-.76-1.21V49Zm6,6.06-1.81-4.55a2.21,2.21,0,0,1-.2-.67c0-.29.24-.45.63-.48s.48,0,.48-.19S73.3,49,73.09,49a1.53,1.53,0,0,0-.27,0c-.58,0-.95,0-1.43,0s-.79,0-1.19,0H70c-.2,0-.27,0-.27.17s.07.21.33.21c.56,0,.72.16,1,.81l2.62,6.44c.06.18.11.22.19.22s.14-.08.21-.22l2.6-5.75c.51-1.15.73-1.39,1.29-1.5.35,0,.43-.08.43-.23s-.07-.17-.21-.17a1.27,1.27,0,0,0-.27,0,10.19,10.19,0,0,1-1,.06c-.34,0-.62,0-1,0h-.26c-.14,0-.23.08-.23.19s.06.19.46.19.65.19.65.46a3.64,3.64,0,0,1-.26.92l-2,4.33Zm11.06-3.17c.33,0,.38,0,.38-.31a3,3,0,0,0-.27-1.15,2.85,2.85,0,0,0-2.81-1.64,4.44,4.44,0,0,0-2.51.76,3.56,3.56,0,0,0-1.73,3.22,4,4,0,0,0,6.6,3c.4-.36.62-.63.62-.78a.13.13,0,0,0-.12-.12.33.33,0,0,0-.18.09A3.1,3.1,0,0,1,83,56a3.33,3.33,0,0,1-3.3-3.58c0-.5.08-.57.47-.57Zm-5.16-.42c-.26,0-.37-.06-.37-.22a2.42,2.42,0,0,1,.38-.94,2.77,2.77,0,0,1,2.29-1.2,1.72,1.72,0,0,1,1.87,1.54.65.65,0,0,1-.52.66,10.14,10.14,0,0,1-1.86.16Zm9.14-2.68c0-.17,0-.22-.11-.22s-.13.06-.22.21a2.43,2.43,0,0,1-1.4,1.06c-.46.14-.47.14-.47.28s.06.12.15.12h.32c.48,0,.57.15.57.9v3.79c0,1-.11,1.18-.76,1.21-.4,0-.48.06-.48.24s.08.19.23.19a.56.56,0,0,0,.16,0c.6-.05,1.2-.08,1.42-.08s.77,0,1.45.08a.49.49,0,0,0,.14,0c.16,0,.24-.07.24-.19s-.08-.21-.48-.24c-.65,0-.76-.19-.76-1.21V51.72a2.33,2.33,0,0,1,.35-1.46c.3-.47.61-.71.91-.71a.53.53,0,0,1,.44.25c.26.3.41.4.67.4a.68.68,0,0,0,.7-.68.9.9,0,0,0-1-.86,1.41,1.41,0,0,0-.88.29,3.71,3.71,0,0,0-.85.82c-.19.3-.21.3-.27.3s-.1,0-.1-.17V48.77Zm10.4.65a.58.58,0,0,0,.16-.32.15.15,0,0,0-.16-.14l-.25,0H95.23c-.48,0-.67-.15-.67-.48s0-.28-.16-.28-.17.09-.24.27l-.58,1.71a.76.76,0,0,0,0,.19.14.14,0,0,0,.14.13c.1,0,.16-.05.29-.27a2.19,2.19,0,0,1,.74-.67A2.43,2.43,0,0,1,96,49.39h1.81c.33,0,.41,0,.41.13a.51.51,0,0,1-.11.2l-4.75,6.35c-.11.16-.12.19-.12.24s0,.17.41.17h4.76l.61,0,.38,0h.24c.19,0,.25-.13.25-.41v-.27a3.62,3.62,0,0,1,0-.48c0-.6,0-.6,0-.65,0-.28,0-.35-.16-.35s-.12.05-.17.16a3.12,3.12,0,0,1-.4.87c-.3.48-.86.67-1.9.67H95.34c-.29,0-.4,0-.4-.14s0,0,.16-.27l4.62-6.24Zm7.24.86c0-.59-.08-.84-.33-1.06a2.3,2.3,0,0,0-1.52-.45c-1.78,0-3.78,1.29-3.78,2.43,0,.13.06.19.2.19a1.86,1.86,0,0,0,.64-.16c.3-.14.38-.22.59-.68a2,2,0,0,1,2-1.45c.76,0,1.06.39,1.06,1.34v1.17a.6.6,0,0,1-.44.68l-1.68.81c-1.66.8-2.34,1.48-2.34,2.34A1.48,1.48,0,0,0,103,56.8a3.89,3.89,0,0,0,2.52-1.22c.11-.1.14-.13.19-.13s.14.07.19.22c.24.67.57,1,1,1s1.61-.67,1.61-1a.14.14,0,0,0-.12-.12.26.26,0,0,0-.14.07c-.32.29-.41.35-.63.35-.4,0-.61-.42-.61-1.19V50.28Zm-1.52,2.3c.21-.11.21-.11.24-.11s.12.08.12.28v1.46a1.42,1.42,0,0,1-.39,1,2.18,2.18,0,0,1-1.64.73,1,1,0,0,1-1.17-1,1.8,1.8,0,0,1,1.14-1.52l1.7-.86Zm11.11-2.22a3.12,3.12,0,0,0,.24-1,.55.55,0,0,0-.57-.62,3.83,3.83,0,0,0-2,1.2,4,4,0,0,0-.76,1.07.13.13,0,0,0,.11.14c.06,0,.13,0,.21-.17.46-.69,1.27-1.4,1.59-1.4a.23.23,0,0,1,.23.25c0,.1,0,.1-.19.56L114,53.75a4.52,4.52,0,0,0-.41,1.56c0,.89.54,1.38,1.52,1.38,1.24,0,2.58-.83,3.78-2.33a8.65,8.65,0,0,0,1.91-4.62c0-.65-.3-1.19-.67-1.19a.71.71,0,0,0-.6.75,1.27,1.27,0,0,0,.22.68,1.2,1.2,0,0,1,.3.85,6.49,6.49,0,0,1-1.09,2.83c-1,1.47-2.34,2.47-3.31,2.47a.85.85,0,0,1-.89-.85,3.27,3.27,0,0,1,.27-1.11l1.54-3.81Zm16,4.12a.79.79,0,0,0,.06-.25.17.17,0,0,0-.17-.17c-.13,0-.16,0-.37.44a2.85,2.85,0,0,1-1.14,1.27c-.54.28-.78.32-2.29.32h-.48c-.36,0-.5-.1-.5-.35a1,1,0,0,1,.08-.38l2.25-7.4c.41-1.39.59-1.63,1.35-1.66.6,0,.68-.07.68-.31s-.08-.14-.24-.14l-.42,0c-.5,0-1,.05-1.43.05s-1.27,0-1.85-.07h-.19c-.2,0-.31.08-.31.22s.08.2.5.22a1.6,1.6,0,0,1,.59.06.49.49,0,0,1,.26.42,4.8,4.8,0,0,1-.29,1.15l-2,6.51c-.4,1.4-.59,1.63-1.33,1.67s-.69.06-.69.3c0,.09.08.14.24.14h.43c.59,0,1-.05,1.62-.05h4.62c.33,0,.43-.06.52-.33l.5-1.67Zm4.43-4.12a4.15,4.15,0,0,0,.23-1.06c0-.39-.17-.59-.52-.59a4,4,0,0,0-2.17,1.38,2.42,2.42,0,0,0-.7.95.1.1,0,0,0,.11.11c.09,0,.16-.06.28-.22.51-.65,1.21-1.25,1.48-1.25s.21.11.21.28a1.49,1.49,0,0,1-.08.4l-2.42,7.89c-.4,1.35-.4,1.35-.6,1.57a.78.78,0,0,1-.61.31c-.28,0-.41-.11-.65-.49s-.43-.55-.68-.55a.6.6,0,0,0-.59.6c0,.49.54.86,1.31.86a2.76,2.76,0,0,0,1.63-.57,5.09,5.09,0,0,0,1.69-2.8l2.08-6.82Zm.6-4.46a1.07,1.07,0,0,0-.89,1.11c0,.37.21.62.52.62a1.11,1.11,0,0,0,.91-1.11.57.57,0,0,0-.54-.62ZM144,54.75a5.37,5.37,0,0,0-.25,1.34c0,.36.19.6.49.6a3.86,3.86,0,0,0,2.27-1.37,4.48,4.48,0,0,0,.92-1.38.11.11,0,0,0-.11-.11c-.06,0-.13.05-.21.19-.54.89-1.39,1.7-1.79,1.7-.18,0-.29-.14-.29-.35a1.72,1.72,0,0,1,.11-.51l1.77-5.77a1.66,1.66,0,0,0,0-.22c0-.11-.07-.16-.22-.16h-.61c-.24,0-.27,0-.38.38l-.19.63a12.58,12.58,0,0,1-2.79,4.64,4.82,4.82,0,0,1-2.34,1.57.44.44,0,0,1-.47-.45,1.9,1.9,0,0,1,.14-.66l1.49-4.45a2.89,2.89,0,0,0,.19-.92c0-.46-.2-.74-.54-.74a3.52,3.52,0,0,0-2.11,1.38,3.41,3.41,0,0,0-.7,1.13c0,.07,0,.11.1.11s.16,0,.36-.37c.51-.76,1.15-1.35,1.45-1.35s.24.1.24.29,0,.11-.13.47l-1.48,4.26a4.21,4.21,0,0,0-.25,1.19c0,.57.25.87.76.87a5,5,0,0,0,2.89-1.52,11.87,11.87,0,0,0,2.44-3l-.79,2.6Zm8.5-9.66a1.06,1.06,0,0,0,.06-.29.17.17,0,0,0-.16-.17.38.38,0,0,0-.17.06,2.83,2.83,0,0,1-1.64.45c-.43,0-.63.08-.63.27s.07.17.33.17h.3A.36.36,0,0,1,151,46a3.5,3.5,0,0,1-.14.66l-1.94,6.3a5.66,5.66,0,0,0-.38,1.83,2,2,0,0,0,2.24,2,6,6,0,0,0,5.6-5.76c0-1.31-.71-2.24-1.71-2.24-1.31,0-2.92,1.39-4.48,3.85l2.29-7.47Zm1.65,4.38c.62,0,1,.54,1,1.48,0,2.45-2.37,5.42-4.34,5.42-.79,0-1.25-.41-1.25-1.11a6.92,6.92,0,0,1,1.47-3.2c1.1-1.59,2.32-2.59,3.15-2.59Zm3.32,5.25a4.76,4.76,0,0,0-.26,1.26c0,.5.16.71.54.71.57,0,1.51-.73,2.29-1.76a2.22,2.22,0,0,0,.51-.94c0-.08,0-.13-.1-.13s-.16.07-.25.23c-.43.76-1.19,1.54-1.5,1.54-.12,0-.22-.11-.22-.29s0-.17.26-1L161.55,45a.63.63,0,0,0,0-.23c0-.06-.06-.14-.12-.14a.31.31,0,0,0-.18.08,3.46,3.46,0,0,1-2,.63c-.4,0-.51.07-.51.23s.08.19.24.19h.24c.46,0,.69.14.68.39a2.15,2.15,0,0,1-.13.53l-2.44,8Zm7.49-4.36a3.9,3.9,0,0,0,.24-1.06c0-.39-.18-.59-.53-.59a4,4,0,0,0-2.17,1.38,2.54,2.54,0,0,0-.7.95.11.11,0,0,0,.11.11c.1,0,.16-.06.29-.22.51-.65,1.2-1.25,1.47-1.25s.21.11.21.28a1.17,1.17,0,0,1-.08.4l-2.41,7.89c-.4,1.35-.4,1.35-.61,1.57a.78.78,0,0,1-.6.31c-.29,0-.41-.11-.65-.49s-.43-.55-.69-.55a.6.6,0,0,0-.58.6c0,.49.54.86,1.3.86a2.81,2.81,0,0,0,1.64-.57,5,5,0,0,0,1.68-2.8l2.08-6.82Zm.6-4.46a1.07,1.07,0,0,0-.89,1.11.55.55,0,0,0,.53.62,1.11,1.11,0,0,0,.9-1.11.56.56,0,0,0-.54-.62Zm5.89,9.55a3,3,0,0,0-.12.76c0,.31.16.48.44.48a3.15,3.15,0,0,0,1.84-1.06,4.27,4.27,0,0,0,1.1-1.61.13.13,0,0,0-.13-.14c-.06,0-.12,0-.19.18-.55.87-1.2,1.52-1.52,1.52-.11,0-.18-.08-.18-.22a1.92,1.92,0,0,1,.07-.38l1.87-6.15a.39.39,0,0,0,0-.14c0-.11-.06-.14-.24-.14h-.58c-.19,0-.32.11-.38.36l-.13.39a1.41,1.41,0,0,0-1.3-.59,5.73,5.73,0,0,0-3.64,1.6A7.05,7.05,0,0,0,165.91,55c0,1,.55,1.7,1.34,1.7,1.45,0,3.31-1.7,5.24-4.81l-1.08,3.57ZM172,49c.61,0,1.05.35,1.05.83a8.38,8.38,0,0,1-2,3.53c-1.31,1.61-2.3,2.4-3,2.4-.45,0-.78-.44-.78-1a7.26,7.26,0,0,1,1.51-3.55C169.83,49.8,171,49,172,49Zm7.21,1.79a4.77,4.77,0,0,0,.22-1.28q0-.84-.69-.84a2.78,2.78,0,0,0-1.75,1,4.58,4.58,0,0,0-1,1.44c0,.07.05.11.13.11s.13,0,.21-.19c.36-.66,1.25-1.5,1.58-1.5s.32.16.32.41a3,3,0,0,1-.14.73l-1.64,5.35a1.66,1.66,0,0,0,0,.22.18.18,0,0,0,.19.17h.59c.21,0,.33-.12.41-.39l.1-.29a16.3,16.3,0,0,1,1.3-2.68,12.49,12.49,0,0,1,1.9-2.57,3.07,3.07,0,0,1,1.88-1.16.53.53,0,0,1,.59.56,2.53,2.53,0,0,1-.16.76l-1.35,3.58a5.34,5.34,0,0,0-.38,1.59q0,.81.69.81a3.73,3.73,0,0,0,2.12-1.4,3.85,3.85,0,0,0,.85-1.22.14.14,0,0,0-.12-.13c-.07,0-.13.05-.21.18-.57.86-1.41,1.6-1.79,1.6a.29.29,0,0,1-.32-.33,1.77,1.77,0,0,1,.19-.67l1.51-4a3.59,3.59,0,0,0,.25-1,1,1,0,0,0-1.08-1A4.06,4.06,0,0,0,181,50a12.75,12.75,0,0,0-2.57,3.41l.79-2.56Zm7.91,3.89a5.19,5.19,0,0,0-.25,1.27c0,.49.15.7.53.7a3.89,3.89,0,0,0,2.29-1.76,2.21,2.21,0,0,0,.51-.94c0-.09,0-.13-.1-.13s-.15.07-.25.23c-.43.74-1.19,1.54-1.49,1.54-.13,0-.22-.11-.22-.29s0-.19.27-1l1.22-4a4,4,0,0,0,.22-1.06c0-.4-.17-.61-.52-.61a4,4,0,0,0-2.16,1.38,3,3,0,0,0-.7,1,.12.12,0,0,0,.11.13c.08,0,.16-.06.29-.22.52-.68,1.19-1.25,1.46-1.25.12,0,.2.11.2.28a.94.94,0,0,1-.08.4l-1.33,4.36Zm3.1-8.82a1.06,1.06,0,0,0-.89,1.11c0,.37.2.62.52.62a1.12,1.12,0,0,0,.91-1.11.57.57,0,0,0-.54-.62Z"/><path class="cls-4" d="M36.75,69.31c0-.43.13-.51.79-.51,1.27,0,1.67,0,2,.24a2.12,2.12,0,0,1,.66,1.3c.05.29.11.4.26.4a.2.2,0,0,0,.19-.21.56.56,0,0,0,0-.16,9.92,9.92,0,0,1-.05-1.17,10.42,10.42,0,0,1,.07-1.32,5,5,0,0,0,.06-.62c0-.17-.06-.27-.17-.27s-.21.1-.24.34a1.33,1.33,0,0,1-.54,1c-.22.12-.42.14-2.11.14-.83,0-.86,0-.86-.6V64.9c0-.38.06-.56.22-.62a4.84,4.84,0,0,1,1.48-.14c1.93,0,2.52.33,2.95,1.65.1.28.16.36.27.36s.19-.08.19-.46V64.07c0-.25-.08-.35-.3-.35l-.86,0H37.19l-1.38,0h-.4l-1.25-.08c-.17,0-.29.08-.29.24s.12.22.43.22c1,0,1.11.14,1.11,1.19v7.38c0,1.06-.12,1.19-1.11,1.19-.31,0-.43.06-.43.22s.12.24.29.24h.33l1.59-.08h.67l1.25.08c.18,0,.29-.08.29-.24s-.11-.22-.43-.22c-1,0-1.11-.13-1.11-1.19V69.31Zm11.43-1.19c0-.59-.08-.84-.33-1.06a2.33,2.33,0,0,0-1.53-.45c-1.78,0-3.78,1.29-3.78,2.43,0,.13.07.19.21.19a1.86,1.86,0,0,0,.64-.16c.3-.14.38-.22.58-.68a2,2,0,0,1,2-1.45c.76,0,1.06.39,1.06,1.34v1.17a.6.6,0,0,1-.44.68l-1.69.81c-1.65.8-2.33,1.48-2.33,2.34a1.48,1.48,0,0,0,1.6,1.36,3.91,3.91,0,0,0,2.53-1.22c.11-.1.14-.13.19-.13s.14.07.19.22c.24.67.57,1,1,1s1.6-.67,1.6-1a.13.13,0,0,0-.11-.12.23.23,0,0,0-.14.07c-.32.29-.41.35-.64.35-.39,0-.6-.42-.6-1.19V68.12Zm-1.52,2.3c.2-.11.2-.11.23-.11s.13.08.13.28v1.46a1.39,1.39,0,0,1-.4,1,2.14,2.14,0,0,1-1.63.73,1,1,0,0,1-1.18-1A1.81,1.81,0,0,1,45,71.28l1.7-.86Zm5.86-7.7c0-.3,0-.35-.13-.35a.31.31,0,0,0-.13.05,4.84,4.84,0,0,1-1.63.72c-.32.06-.38.11-.38.23s.07.16.22.16c.39,0,.44,0,.57.07s.32.3.32,1.06v8.09c0,1-.11,1.18-.76,1.21-.4,0-.48.06-.48.24s.08.19.22.19a.53.53,0,0,0,.16,0c.6-.05,1.21-.08,1.43-.08s.76,0,1.44.08a.54.54,0,0,0,.15,0c.16,0,.23-.07.23-.19s-.07-.21-.47-.24c-.65,0-.76-.19-.76-1.21V71.36a.58.58,0,0,1,.3-.61l.35-.27a.42.42,0,0,1,.25-.12c.11,0,.19.08.38.31l1.83,2.4a1.1,1.1,0,0,1,.28.55c0,.26-.15.35-.66.39-.21,0-.3.07-.3.2s.09.19.28.19l.49,0c.4,0,.77-.05,1.13-.05s.73,0,1.46.08a.45.45,0,0,0,.14,0c.2,0,.29-.08.29-.22s-.05-.16-.35-.19c-.51-.1-.63-.18-1.11-.78l-2.6-3.3c-.21-.26-.21-.26-.21-.34s.06-.15.27-.31L56.34,68a2.66,2.66,0,0,1,1.8-.82c.24,0,.33-.07.33-.21s-.08-.19-.27-.19a1,1,0,0,0-.21,0c-.65,0-1,.06-1.47.06a3.33,3.33,0,0,1-.48,0l-.86,0c-.27,0-.36,0-.36.19s.06.22.76.23c.27,0,.43.12.43.27s-.19.42-.52.67L52.9,70.21c-.24.18-.24.18-.29.18s-.09,0-.09-.46V62.72Zm14.7,4.35c0-.19,0-.25-.19-.25h-1l-1-.07c-.16,0-.24.07-.24.19s.08.21.48.24c.67,0,.76.19.76,1.21v3.68c0,.6,0,.79-.29,1.06a2.35,2.35,0,0,1-1.77.8,2.72,2.72,0,0,1-1.23-.27c-.62-.35-.85-1-.85-2.26V67.26c0-.35-.05-.44-.26-.44h-.9l-1-.07c-.16,0-.24.07-.24.19s.08.21.47.24c.66,0,.77.19.77,1.21v3c0,1.4.14,1.91.71,2.49a2.37,2.37,0,0,0,1.81.75,3.55,3.55,0,0,0,2.4-1.09c.09-.08.14-.12.21-.12s.12.07.12.26v.79c0,.21,0,.21.08.21a.16.16,0,0,0,.1,0A5,5,0,0,1,68,73.85c.3-.1.37-.13.37-.24s-.08-.13-.21-.13H67.9c-.59,0-.68-.12-.68-.92V67.07Zm4.33-4.22,0-.3c0-.1,0-.18-.11-.18a.45.45,0,0,0-.18.08,4.15,4.15,0,0,1-1.89.77c-.14,0-.19.06-.19.14s.07.17.59.17.61.18.61.86v8.36c0,1-.12,1.18-.77,1.21-.39,0-.47.06-.47.24s.08.19.22.19a.56.56,0,0,0,.16,0c.6-.05,1.2-.08,1.43-.08s.76,0,1.44.08l.14,0c.16,0,.24-.07.24-.19s-.08-.21-.47-.24c-.65,0-.77-.21-.77-1.21v-9.9Zm4.28,5c0-.52,0-.54.41-.54h1.38c.29,0,.32,0,.32-.27s0-.25-.32-.25H76.24c-.4,0-.41,0-.41-.45v-1c0-.19,0-.29-.15-.29s-.11.05-.17.16A3.91,3.91,0,0,1,73.9,67c-.14.1-.2.16-.2.24s0,.14.27.14h.43c.24,0,.27,0,.27.38v4.49c0,1.24.08,1.61.43,2a1.62,1.62,0,0,0,1.17.46,2.39,2.39,0,0,0,1.45-.54c.28-.24.46-.46.46-.61a.14.14,0,0,0-.12-.12.33.33,0,0,0-.12.06c-.49.41-.76.56-1.11.56-.69,0-1-.56-1-1.8V67.88Zm9.87,1.83c.34,0,.38,0,.38-.31A2.86,2.86,0,0,0,83,66.61a4.49,4.49,0,0,0-2.51.76,3.56,3.56,0,0,0-1.73,3.22,4,4,0,0,0,6.61,3c.4-.36.62-.63.62-.78a.14.14,0,0,0-.13-.12s-.09,0-.17.09a3.11,3.11,0,0,1-2.35,1A3.34,3.34,0,0,1,80,70.28c0-.5.08-.57.48-.57Zm-5.16-.42c-.25,0-.36-.06-.36-.22a2.27,2.27,0,0,1,.38-.94,2.75,2.75,0,0,1,2.28-1.2,1.73,1.73,0,0,1,1.88,1.54.66.66,0,0,1-.53.66,10,10,0,0,1-1.85.16Zm8.51-1.41c0-.52,0-.54.42-.54h1.38c.28,0,.31,0,.31-.27s0-.25-.31-.25H89.47c-.4,0-.42,0-.42-.45v-1c0-.19,0-.29-.14-.29s-.11.05-.18.16A3.88,3.88,0,0,1,87.13,67c-.14.1-.21.16-.21.24s0,.14.27.14h.43c.24,0,.27,0,.27.38v4.49c0,1.24.08,1.61.43,2a1.64,1.64,0,0,0,1.18.46,2.35,2.35,0,0,0,1.44-.54c.29-.24.46-.46.46-.61a.13.13,0,0,0-.11-.12.36.36,0,0,0-.13.06c-.49.41-.76.56-1.11.56-.68,0-1-.56-1-1.8V67.88Zm9.1.24c0-.59-.08-.84-.33-1.06a2.33,2.33,0,0,0-1.53-.45c-1.78,0-3.78,1.29-3.78,2.43,0,.13.07.19.21.19a1.86,1.86,0,0,0,.64-.16c.3-.14.38-.22.58-.68a2,2,0,0,1,2-1.45c.76,0,1.06.39,1.06,1.34v1.17a.6.6,0,0,1-.44.68l-1.69.81c-1.65.8-2.33,1.48-2.33,2.34a1.48,1.48,0,0,0,1.6,1.36,3.91,3.91,0,0,0,2.53-1.22c.11-.1.14-.13.19-.13s.14.07.19.22c.24.67.57,1,1,1s1.6-.67,1.6-1a.13.13,0,0,0-.11-.12.23.23,0,0,0-.14.07c-.32.29-.41.35-.64.35-.39,0-.6-.42-.6-1.19V68.12Zm-1.52,2.3c.2-.11.2-.11.23-.11s.13.08.13.28v1.46a1.42,1.42,0,0,1-.39,1,2.18,2.18,0,0,1-1.64.73,1,1,0,0,1-1.18-1,1.81,1.81,0,0,1,1.15-1.52l1.7-.86Z"/><path class="cls-5" d="M105.31,68.71c0-.58.46-1,1.15-1a2.88,2.88,0,0,1,.79.11,8.26,8.26,0,0,0,2.18.36,4.15,4.15,0,0,0,1.44-.27,3.58,3.58,0,0,1-.56.4,25.92,25.92,0,0,0-4,3.32c-.38.41-.78.82-1.18,1.23l-.28.27c-.89.07-1.59.46-1.59.91a.34.34,0,0,0,.36.35c.23,0,.48-.16,1.15-.72a.64.64,0,0,1,.49-.22c.22,0,.35,0,1.24.46a4,4,0,0,0,2.06.62,2.55,2.55,0,0,0,1.81-.67,2.06,2.06,0,0,0,.62-1.35c0-.39-.14-.73-.3-.73a.14.14,0,0,0-.14.13.39.39,0,0,0,0,.13.86.86,0,0,1,.06.35c0,.57-.52,1-1.22,1a3.37,3.37,0,0,1-.81-.13,8.92,8.92,0,0,0-2.08-.28,4.37,4.37,0,0,0-1.25.17c2.38-2,3.06-2.55,5.22-4.5a3.09,3.09,0,0,1,.49-.45c.19-.11.37-.22.53-.33,1.27-.78,1.28-.79,1.28-1s-.16-.25-.38-.25-.7.32-1.33,1.06a3.34,3.34,0,0,1-.41,0,4.45,4.45,0,0,1-2-.59,3.34,3.34,0,0,0-1.64-.51,2,2,0,0,0-2.06,2c0,.38.06.54.21.54s.11-.07.11-.16l0-.25ZM118,73.29a2.64,2.64,0,0,0-.13.76.42.42,0,0,0,.45.48,3.18,3.18,0,0,0,1.84-1.06,4.22,4.22,0,0,0,1.09-1.61.13.13,0,0,0-.12-.14c-.07,0-.13,0-.19.17-.56.88-1.21,1.53-1.53,1.53-.11,0-.17-.08-.17-.22a1.86,1.86,0,0,1,.06-.38l1.88-6.15a.89.89,0,0,0,0-.14c0-.11-.07-.14-.24-.14h-.59c-.19,0-.32.11-.38.36l-.13.39a1.4,1.4,0,0,0-1.3-.59,5.76,5.76,0,0,0-3.64,1.6,7.09,7.09,0,0,0-2.44,4.68c0,1,.56,1.7,1.35,1.7,1.44,0,3.3-1.7,5.24-4.81L118,73.29Zm.59-6.41c.6,0,1,.35,1,.83a8.38,8.38,0,0,1-2,3.53c-1.32,1.61-2.3,2.4-3,2.4-.44,0-.78-.44-.78-1a7.42,7.42,0,0,1,1.51-3.56c1.08-1.41,2.22-2.17,3.26-2.17Zm13.4.52a.58.58,0,0,0,0-.14c0-.38-.92-.71-2-.71a3.28,3.28,0,0,0-1.54.33,2.33,2.33,0,0,0-1.27,1.94,2.63,2.63,0,0,0,1.06,1.84l1.07,1a1.74,1.74,0,0,1,.58,1.18,1.48,1.48,0,0,1-1.5,1.35,1.78,1.78,0,0,1-1.24-.56,3,3,0,0,1-.54-.73c-.34-.55-.37-.59-.51-.59s-.17.08-.21.19l-.25.83a.38.38,0,0,0,0,.13c0,.46,1.34,1.06,2.37,1.06,1.58,0,3-1.11,3-2.33,0-.69-.31-1.16-1.6-2.38-1.06-1-1.22-1.24-1.22-1.75a1.14,1.14,0,0,1,1.22-1.14,2.07,2.07,0,0,1,1.48.76c.46.46.59.56.7.56a.23.23,0,0,0,.2-.18l.21-.67Zm3.92-.15h1.51c.17,0,.27-.13.27-.32s-.06-.11-.19-.11H136l.49-1.64a.82.82,0,0,0,.05-.22c0-.13-.07-.16-.27-.16h-.49c-.35,0-.35,0-.48.48l-.48,1.54h-1.22c-.17,0-.27.12-.27.32s.06.11.19.11h1.18l-1.58,5.12a5,5,0,0,0-.25,1.24c0,.57.24.92.63.92a3.73,3.73,0,0,0,2.24-1.73,2.73,2.73,0,0,0,.54-.92.14.14,0,0,0-.12-.13c-.08,0-.13,0-.19.19s-.46.65-.65.89c-.43.51-.72.73-1,.73s-.27-.14-.27-.36a1.93,1.93,0,0,1,.15-.62l1.63-5.33Zm4.91,1.25a4.08,4.08,0,0,0,.16-1c0-.57-.26-1-.64-1a2.79,2.79,0,0,0-1.6,1,4.1,4.1,0,0,0-1,1.41.11.11,0,0,0,.11.11c.06,0,.1,0,.19-.16.35-.48.56-.76.65-.86.35-.38.65-.6.84-.6s.23.13.23.33a2.83,2.83,0,0,1-.16.81L138,73.82a1,1,0,0,0-.06.3c0,.11.13.2.32.2h.28c.42,0,.49-.06.62-.5l.15-.45A26.62,26.62,0,0,1,141.61,69c.62-.89,1.14-1.41,1.41-1.41s.23.09.26.39a.51.51,0,0,0,.55.45c.45,0,.8-.43.8-1a.79.79,0,0,0-.86-.82c-1,0-2,1.27-3.75,4.54l.8-2.59Zm8.38-2a4.9,4.9,0,0,0-4.59,4.71,3.07,3.07,0,0,0,2.83,3.29,5,5,0,0,0,3.13-1.32,4.69,4.69,0,0,0,1.62-3.36,3.18,3.18,0,0,0-3-3.32Zm.13.35c1.06,0,1.68.79,1.68,2.14a7.36,7.36,0,0,1-1,3.48,3.06,3.06,0,0,1-2.46,1.7c-1.11,0-1.74-.86-1.74-2.35A6.94,6.94,0,0,1,147,68.18a3,3,0,0,1,2.35-1.3Zm7.38,1.32a3.9,3.9,0,0,0,.24-1.06c0-.39-.17-.59-.52-.59a4,4,0,0,0-2.18,1.38,2.54,2.54,0,0,0-.7.95.11.11,0,0,0,.11.11c.1,0,.16-.06.29-.22.51-.65,1.21-1.25,1.48-1.25.12,0,.2.11.2.28a1.17,1.17,0,0,1-.08.4l-2.41,7.89c-.4,1.35-.4,1.35-.61,1.57a.78.78,0,0,1-.6.31c-.29,0-.41-.11-.65-.49s-.43-.55-.68-.55a.6.6,0,0,0-.59.6c0,.49.54.86,1.3.86a2.79,2.79,0,0,0,1.64-.57,5,5,0,0,0,1.68-2.8l2.08-6.82Zm.61-4.46a1.07,1.07,0,0,0-.89,1.11c0,.37.2.62.52.62a1.11,1.11,0,0,0,.91-1.11.57.57,0,0,0-.54-.62Zm4,4.93a4.77,4.77,0,0,0,.22-1.28c0-.56-.24-.84-.7-.84a2.77,2.77,0,0,0-1.74,1,4.58,4.58,0,0,0-1,1.44c0,.07,0,.11.13.11s.12,0,.2-.19c.37-.66,1.26-1.5,1.59-1.5s.32.16.32.41a3,3,0,0,1-.14.73l-1.64,5.35a.83.83,0,0,0,0,.22.18.18,0,0,0,.19.17h.59c.2,0,.33-.12.41-.39l.09-.29A17.42,17.42,0,0,1,161.13,71a12.49,12.49,0,0,1,1.9-2.57,3,3,0,0,1,1.88-1.16.53.53,0,0,1,.58.56,2.25,2.25,0,0,1-.16.76L164,72.13a5.67,5.67,0,0,0-.38,1.59c0,.54.24.81.7.81a3.68,3.68,0,0,0,2.11-1.4,3.94,3.94,0,0,0,.86-1.22.14.14,0,0,0-.13-.13c-.06,0-.12,0-.2.18-.57.86-1.41,1.6-1.8,1.6-.2,0-.31-.11-.31-.33a1.73,1.73,0,0,1,.19-.67l1.51-4a4,4,0,0,0,.25-1,1,1,0,0,0-1.08-1,4,4,0,0,0-2.57,1.27,12.76,12.76,0,0,0-2.58,3.41l.8-2.56Zm7.91,3.89a5.32,5.32,0,0,0-.26,1.27c0,.49.16.7.54.7a3.92,3.92,0,0,0,2.29-1.76,2.34,2.34,0,0,0,.51-.94c0-.09,0-.13-.1-.13s-.16.07-.25.23c-.43.74-1.19,1.54-1.5,1.54-.12,0-.22-.11-.22-.29s0-.19.27-1l1.23-4a4.43,4.43,0,0,0,.22-1.06c0-.4-.18-.61-.53-.61a4,4,0,0,0-2.16,1.38,2.92,2.92,0,0,0-.69,1c0,.08,0,.13.11.13s.16-.06.28-.22c.53-.68,1.19-1.25,1.46-1.25s.21.11.21.28a1.13,1.13,0,0,1-.08.4l-1.33,4.36Zm3.09-8.82a1.07,1.07,0,0,0-.89,1.11.55.55,0,0,0,.53.62,1.11,1.11,0,0,0,.9-1.11.57.57,0,0,0-.54-.62Zm6.77,3.66a.58.58,0,0,0,0-.14c0-.38-.92-.71-2-.71a3.28,3.28,0,0,0-1.54.33,2.33,2.33,0,0,0-1.27,1.94,2.63,2.63,0,0,0,1.06,1.84l1.07,1a1.74,1.74,0,0,1,.58,1.18,1.48,1.48,0,0,1-1.51,1.35,1.78,1.78,0,0,1-1.23-.56,3,3,0,0,1-.54-.73c-.34-.55-.37-.59-.51-.59a.23.23,0,0,0-.21.19l-.26.83a.79.79,0,0,0,0,.13c0,.46,1.34,1.06,2.37,1.06,1.57,0,3-1.11,3-2.33,0-.69-.31-1.16-1.6-2.38-1.06-1-1.22-1.24-1.22-1.75a1.14,1.14,0,0,1,1.22-1.14,2.07,2.07,0,0,1,1.48.76c.46.46.58.56.69.56a.23.23,0,0,0,.21-.18l.21-.67ZM177.37,65l-1.32-1.59c-.08-.06-.11-.09-.14-.09a.33.33,0,0,0-.22.17s0,0,.06.15l1.06,1.92c.1.19.1.19.31.19h.23c.21,0,.21,0,.43-.19l2.07-1.88c.17-.14.17-.14.17-.19a.15.15,0,0,0,0-.06l-.05-.06a.1.1,0,0,0-.08,0,1,1,0,0,0-.2.09L177.37,65ZM183,67.25h1.51c.18,0,.27-.13.27-.32s-.06-.11-.19-.11h-1.46l.49-1.64a.82.82,0,0,0,.05-.22c0-.13-.06-.16-.27-.16h-.49c-.35,0-.35,0-.48.48L182,66.82h-1.23c-.17,0-.27.12-.27.32s.07.11.19.11h1.18l-1.57,5.12a4.66,4.66,0,0,0-.26,1.24c0,.57.24.92.64.92a3.76,3.76,0,0,0,2.24-1.73,2.93,2.93,0,0,0,.54-.92.15.15,0,0,0-.13-.13c-.08,0-.13,0-.19.19s-.46.65-.65.89c-.43.51-.72.73-1,.73s-.26-.14-.26-.36a2.12,2.12,0,0,1,.14-.62L183,67.25Zm5.2,1a3.34,3.34,0,0,0,.23-1,.55.55,0,0,0-.57-.62,3.83,3.83,0,0,0-2,1.2,4.23,4.23,0,0,0-.76,1.07.13.13,0,0,0,.11.14c.07,0,.13,0,.21-.17.46-.69,1.27-1.4,1.59-1.4a.24.24,0,0,1,.24.25c0,.1,0,.1-.2.56l-1.38,3.39a4.52,4.52,0,0,0-.41,1.56c0,.89.54,1.38,1.52,1.38,1.24,0,2.58-.83,3.78-2.33a8.65,8.65,0,0,0,1.91-4.62c0-.65-.3-1.19-.67-1.19a.71.71,0,0,0-.6.75,1.27,1.27,0,0,0,.22.68,1.2,1.2,0,0,1,.3.85,6.49,6.49,0,0,1-1.09,2.83c-1,1.47-2.34,2.47-3.31,2.47a.84.84,0,0,1-.88-.85,3.05,3.05,0,0,1,.27-1.11l1.54-3.81Zm9.68-1.67a4.9,4.9,0,0,0-4.59,4.71,3.07,3.07,0,0,0,2.83,3.29,5,5,0,0,0,3.13-1.32,4.69,4.69,0,0,0,1.62-3.36,3.18,3.18,0,0,0-3-3.32Zm.13.35c1.06,0,1.68.79,1.68,2.14a7.36,7.36,0,0,1-1,3.48,3.06,3.06,0,0,1-2.46,1.7c-1.11,0-1.74-.86-1.74-2.35a6.94,6.94,0,0,1,1.14-3.67,3,3,0,0,1,2.35-1.3Z"/></g></g></svg>