<svg xmlns="http://www.w3.org/2000/svg" viewBox="0 0 235 235"><defs><style>.cls-1{fill:#fff;stroke:#1b0d32;stroke-miterlimit:10;stroke-width:3px;}.cls-2,.cls-4{fill:#124b8e;}.cls-2{fill-rule:evenodd;}.cls-3{fill:#d6ad68;}</style></defs><title>Asset 5</title><g id="Layer_2" data-name="Layer 2"><g id="Layer_3" data-name="Layer 3"><rect class="cls-1" x="1.5" y="1.5" width="232" height="232" rx="23"/><g id="header-logo"><g id="Group_1" data-name="Group 1"><path id="Path_1" data-name="Path 1" class="cls-2" d="M103.4,124.13c0,2.77,2.25,3.73,4.43,3.73a9,9,0,0,0,1.38-.1l1.13-2.3a3.1,3.1,0,0,0-.53.1,1.6,1.6,0,0,1-1.56-1.59c0-.91.39-1.27,2.27-2.08V124c0,2.77,2.55,3.79,4.53,3.79a8.25,8.25,0,0,0,1.22-.1l1.07-2.2c-1.61-.05-2.19-.75-2.19-2.6V119.5c0-3.2-2.08-4.38-5.44-4.33a11.3,11.3,0,0,0-2.84.32l-1.28,3a9,9,0,0,1,3.26-.81c.7,0,1.67.37,1.67,1.17,0,2-7.12.55-7.12,5.29"/><path id="Path_2" data-name="Path 2" class="cls-2" d="M95.44,121.94,98,126.16c.73,1.23,1.22,1.44,2.08,1.44,1.49,0,3-.11,4.43-.11v0c-.81-.54-1.07-1-2.19-2.68l-3-4.69,4.07-4.48v-.1h-6v.1c.7.42,1,.81,1,1.28a2.42,2.42,0,0,1-.75,1.38l-2.14,2.42V109.94l-.05-.06a3,3,0,0,1-1.8.47H90v.05c.92.76.92,1.41.92,2.84V124.6c0,1.36,0,2-.92,2.84v0h6.31v-.1a2.37,2.37,0,0,1-.91-2.24V122"/><path id="Path_3" data-name="Path 3" class="cls-2" d="M78.54,124.19l.54,3a18.84,18.84,0,0,0,4.54.58c3.36,0,6.2-1.07,6.51-3.78.26-2.29-1.69-3.36-3.57-4.06-.7-.26-3.2-.76-2.63-2,.16-.36.7-.57,1.51-.57a6.07,6.07,0,0,1,3.26,1v-2.64a15.45,15.45,0,0,0-4.22-.52c-2.69-.1-5.66,1.07-5.71,3.88a.3.3,0,0,1,0,.16c0,3.86,7.74,3.65,6.07,5.94a2.15,2.15,0,0,1-1.64.57,9.72,9.72,0,0,1-4.61-1.53"/><path id="Path_4" data-name="Path 4" class="cls-2" d="M75.17,110a2.5,2.5,0,0,0-2.5,2.5,2.41,2.41,0,0,0,2.38,2.44h.07A2.47,2.47,0,0,0,75.2,110Zm-2.08,18.94c0,2.14-.86,2.89-1.93,4.07a8,8,0,0,0,5.45-1.83,4.13,4.13,0,0,0,1-3.07v-13h0a3.83,3.83,0,0,1-2.35.41H72v.06a2.55,2.55,0,0,1,1.12,2.34v11.05"/><path id="Path_5" data-name="Path 5" class="cls-2" d="M59.08,124.65c0,1.57,0,2-.91,2.74v.1h6.3v-.1a2.56,2.56,0,0,1-.91-2.4V119.7c0-1.28.76-1.93,1.61-1.88a1.79,1.79,0,0,1,1.65,1.91v5c0,1.38,0,2-.94,2.6v.1h6.38v-.1c-.88-.7-.94-1.27-.94-2.45V119.1a4,4,0,0,0-4.1-4,2.69,2.69,0,0,0-.4,0,4,4,0,0,0-3.26,1.38v-1.43h-.05a5,5,0,0,1-2.3.36h-3v.1a2.41,2.41,0,0,1,.91,2v7.09"/><path id="Path_6" data-name="Path 6" class="cls-2" d="M45.41,121.5c.15,4.46,3.1,6.41,7.48,6.36a11.25,11.25,0,0,0,4.24-.84l1-2.94a10.82,10.82,0,0,1-4.33,1.33,3.65,3.65,0,0,1-3.88-3.88H58c-.05-3.49-1.69-6.41-6.17-6.36a6.23,6.23,0,0,0-6.41,6Zm4.53-2.17a1.87,1.87,0,0,1,1.8-1.92h.13a1.67,1.67,0,0,1,1.71,1.65,2.44,2.44,0,0,1,0,.27H49.94"/><path id="Path_7" data-name="Path 7" class="cls-2" d="M37.58,125a2.52,2.52,0,0,1-.89,2.4v.06H43v-.06c-.86-.75-.86-1.17-.86-2.78V120c0-1.23,1.41-1.7,2.58-1.7a5.15,5.15,0,0,1,1.17.16v-3.15a6.9,6.9,0,0,0-1,0,2.56,2.56,0,0,0-2.74,1.8v-1.9H42a3.62,3.62,0,0,1-2.19.41H36.69v.06a2.27,2.27,0,0,1,.89,2.08v7.37"/><path id="Path_8" data-name="Path 8" class="cls-2" d="M23.09,121.13c-.23,4.07,2.56,6.68,6.62,6.73,3,0,6.67-1.75,6.88-6.07.15-2.79-1.59-6.62-6.73-6.62C25.7,115.17,23.3,117.83,23.09,121.13Zm4.38.21c0-1.12,0-3.67,2.29-3.67s2.4,3,2.4,4.64c0,1.92-.57,2.94-2.08,3.1-1.93.21-2.61-1.93-2.61-4.07"/><path id="Path_9" data-name="Path 9" class="cls-2" d="M206.3,121.94l2.58,4.22c.73,1.23,1.22,1.44,2.08,1.44,1.49,0,3-.11,4.43-.11v0c-.81-.54-1.07-1-2.19-2.68l-3-4.69,4.08-4.48v-.1h-6.05v.1c.7.42,1,.81,1,1.28a2.44,2.44,0,0,1-.76,1.38l-2.13,2.42V109.94l-.05-.06a3,3,0,0,1-1.8.47h-3.54v.05c.91.76.91,1.41.91,2.84V124.6c0,1.36,0,2-.91,2.84v0h6.3v-.1a2.39,2.39,0,0,1-.91-2.24V122"/><path id="Path_10" data-name="Path 10" class="cls-2" d="M187.24,124.65c0,1.57-.06,2-.92,2.74v.1h6.31v-.1a2.57,2.57,0,0,1-.92-2.4V119.7c0-1.28.76-1.93,1.62-1.88a1.8,1.8,0,0,1,1.65,1.92.13.13,0,0,0,0,.06v5c0,1.38-.05,2-.94,2.6v.1h6.38v-.1c-.88-.7-.93-1.27-.93-2.45V119.1a4,4,0,0,0-4.1-4,2.83,2.83,0,0,0-.41,0,4,4,0,0,0-3.26,1.38v-1.43h-.05a5,5,0,0,1-2.29.36h-3.05v.1a2.39,2.39,0,0,1,.92,2v7.09"/><path id="Path_11" data-name="Path 11" class="cls-2" d="M172.47,124.13c0,2.77,2.24,3.73,4.43,3.73a9.15,9.15,0,0,0,1.38-.1l1.12-2.3a3,3,0,0,0-.52.1,1.6,1.6,0,0,1-1.57-1.59c-.05-.91.4-1.27,2.27-2.08V124c0,2.77,2.55,3.79,4.53,3.79a8.5,8.5,0,0,0,1.23-.1l1.07-2.2c-1.62-.05-2.19-.75-2.19-2.6V119.5c0-3.2-2.09-4.38-5.45-4.33a11.36,11.36,0,0,0-2.84.32l-1.27,3a8.94,8.94,0,0,1,3.25-.81c.7,0,1.67.37,1.67,1.17,0,2-7.12.55-7.12,5.29"/><path id="Path_12" data-name="Path 12" class="cls-2" d="M159.06,124.71c0,1.77-.47,2.26-1.07,2.68v.1h8.54a5.19,5.19,0,0,0,5.54-4.82,1.48,1.48,0,0,0,0-.21,4.38,4.38,0,0,0-3.78-4.74,3.34,3.34,0,0,0,2.79-3.26,3.25,3.25,0,0,0-.39-1.72c-1.38-2.29-2.94-2.4-4.95-2.4H158v.06a2.7,2.7,0,0,1,1.07,2.57Zm4.81-7.79v-4a1.73,1.73,0,0,1,.7-.18c.89,0,1.7.7,1.7,2.13a2,2,0,0,1-1.84,2.14h-.09C164.19,117,164,117,163.87,116.92Zm0,7.84v-5.5h.66c2.06,0,3,1,2.86,3.1a2.48,2.48,0,0,1-2.21,2.72h-.24a2.39,2.39,0,0,1-1.07-.33"/><path id="Path_13" data-name="Path 13" class="cls-2" d="M6.9,119c0,5.5,4.07,8.81,9.9,8.81a18.34,18.34,0,0,0,5.45-.84v-8.39h-5.5c.88.81,1,1.28,1,2.77v3.75c-5.16.62-6-4.17-6-6.67,0-4.22,2.24-5.79,4.85-5.73a5.66,5.66,0,0,1,4,1.51v-3.75a15.06,15.06,0,0,0-3.83-.53c-4.93,0-9.9,2.71-9.9,9.07"/><path id="Path_14" data-name="Path 14" class="cls-2" d="M214.16,124.13c0,2.77,2.24,3.73,4.43,3.73a9.15,9.15,0,0,0,1.38-.1l1.12-2.3a3.18,3.18,0,0,0-.52.1A1.6,1.6,0,0,1,219,124c0-.91.39-1.27,2.26-2.08V124c0,2.77,2.56,3.79,4.54,3.79a8.25,8.25,0,0,0,1.22-.1l1.07-2.2c-1.61-.05-2.19-.75-2.19-2.6V119.5c0-3.2-2.08-4.38-5.44-4.33a11.3,11.3,0,0,0-2.84.32l-1.28,3a9,9,0,0,1,3.26-.81c.7,0,1.67.37,1.67,1.17,0,2-7.12.55-7.12,5.29"/><path id="Path_15" data-name="Path 15" class="cls-2" d="M6.9,119c0,5.5,4.07,8.81,9.9,8.81a18.34,18.34,0,0,0,5.45-.84v-8.39h-5.5c.88.81,1,1.28,1,2.77v3.75c-5.16.62-6-4.17-6-6.67,0-4.22,2.24-5.79,4.85-5.73a5.66,5.66,0,0,1,4,1.51v-3.75a15.06,15.06,0,0,0-3.83-.53c-4.93,0-9.9,2.71-9.9,9.07"/><path id="Path_16" data-name="Path 16" class="cls-2" d="M214.16,124.13c0,2.77,2.24,3.73,4.43,3.73a9.15,9.15,0,0,0,1.38-.1l1.12-2.3a3.18,3.18,0,0,0-.52.1A1.6,1.6,0,0,1,219,124c0-.91.39-1.27,2.26-2.08V124c0,2.77,2.56,3.79,4.54,3.79a8.25,8.25,0,0,0,1.22-.1l1.07-2.2c-1.61-.05-2.19-.75-2.19-2.6V119.5c0-3.2-2.08-4.38-5.44-4.33a11.3,11.3,0,0,0-2.84.32l-1.28,3a9,9,0,0,1,3.26-.81c.7,0,1.67.37,1.67,1.17,0,2-7.12.55-7.12,5.29"/><path id="Path_17" data-name="Path 17" class="cls-3" d="M143.29,105v-.23a3.51,3.51,0,0,1,.48-1.58,3.4,3.4,0,0,1,.92-1,2.81,2.81,0,0,1,2.89-.24,2.94,2.94,0,0,1,1.09.92,3.32,3.32,0,0,1,.6,1.57,3,3,0,0,1,1.29.8,2.37,2.37,0,0,1,.63,1.62,5.16,5.16,0,0,1-.28,1.74,9.53,9.53,0,0,1-1,2l-.33.54L143.28,105"/><path id="Path_18" data-name="Path 18" class="cls-3" d="M138.4,119.59l.52.5-.65.31c-1.59.77-3.21,1.46-4.86,2.09l-.3.12-.23-.23-3-3a8.14,8.14,0,0,0-.41,1.44,9.35,9.35,0,0,0-.14,2.24l0,.45-.44.07c-2.49.4-4.24.15-5.28-.57a2.76,2.76,0,0,1-1.22-2.42,6.72,6.72,0,0,1,1.08-3.21c2.08-3.47,7.21-7.85,14.84-11.21l.31-.14.24.24,8.22,8-.41.36c-.62.55-1.25,1.07-1.9,1.59s-1.28,1-1.94,1.5l-.35.27-.31-.31-6.68-6.62-.22.22a23.83,23.83,0,0,0-2.47,2.84l5.63,5.48"/><path id="Path_19" data-name="Path 19" class="cls-4" d="M149.64,111.14l.32-.54a9.21,9.21,0,0,0,1-2,4.94,4.94,0,0,0,.28-1.75,2.78,2.78,0,0,0-.07-.57,2.93,2.93,0,0,1,2.36,1.5,3.14,3.14,0,0,1,.39,1.2,2.85,2.85,0,0,1-.15,1.26,3.1,3.1,0,0,1-2.75,1.92l-.24,0-.17-.16-.93-.92"/><path id="Path_20" data-name="Path 20" class="cls-4" d="M144.77,120.27,142.46,118l.35-.26c.66-.5,1.3-1,1.94-1.51s1.27-1,1.9-1.58l.4-.36,2.7,2.64-.12.31c-2.53,6.65-7.11,12.26-10.9,14.71a7.78,7.78,0,0,1-3.35,1.35,2.79,2.79,0,0,1-2.65-1.06c-.75-1-1.06-2.71-.74-5.28l0-.46.47,0a11.13,11.13,0,0,0,4-.55l-3.41-3.34.3-.12c.84-.32,1.65-.65,2.46-1s1.6-.71,2.4-1.08l.65-.32,2.89,2.82c.52-.39,1-.79,1.5-1.22a17.77,17.77,0,0,0,1.46-1.42"/></g></g></g></g></svg>