<svg id="Layer_1" data-name="Layer 1" xmlns="http://www.w3.org/2000/svg" viewBox="0 0 250 67.25"><defs><style>.cls-1{fill:#fff;}</style></defs><title>sigmadews_logo_horizontal_white</title><path class="cls-1" d="M173.79,0h35.86V31.38h-9V7.85H196.2V31.38h-9V7.85h-4.49V31.38h-9Z"/><path class="cls-1" d="M115.51,0H79.64V19.61h26.9v3.93H79.64v7.84h35.87V11.77H88.61V7.85h26.9Z"/><path class="cls-1" d="M120,0V31.38h9V0Z"/><path class="cls-1" d="M133.44,0V31.38H169.3V11.77H146.89v7.84h13.45v3.93H142.41V7.85H169.3V0Z"/><path class="cls-1" d="M227.58,0,214.14,31.38h9l3.36-7.84h11.21L241,31.38h9L236.55,0Zm4.49,10.46,2.24,5.23h-4.48Z"/><path class="cls-1" d="M120,35.86V67.25h35.86V59.4H129V55.48h26.89V47.63H129V43.71h26.89V35.86Z"/><path class="cls-1" d="M160.34,67.25H196.2V35.86h-9V59.4h-4.49V35.86h-9V59.4H169.3V35.86h-9Z"/><path class="cls-1" d="M236.55,35.86H200.69V55.48h26.89V59.4H200.69v7.85h35.86V47.63h-26.9V43.71h26.9Z"/><path class="cls-1" d="M79.64,35.86V67.25H97.57c9.91,0,17.94-7,17.94-15.69s-8-15.7-17.94-15.7Zm9,7.85h9c5,0,9,3.51,9,7.85s-4,7.84-9,7.84h-9V43.71Z"/><path class="cls-1" d="M0,0,33.62,33.62,0,67.25H15.82L49.45,33.62,15.82,0Z"/><path class="cls-1" d="M12.39,0H75.16V9H12.39Z"/><path class="cls-1" d="M12.39,58.28H75.16v9H12.39Z"/><path class="cls-1" d="M70.68,4.48h4.48V19.54H70.68Z"/><path class="cls-1" d="M70.68,47.71h4.48v15H70.68Z"/><path class="cls-1" d="M69.22,57.36a3,3,0,0,1,0,1v-1Zm-3,4a3,3,0,0,1-1,0h1Z"/><path class="cls-1" d="M64,9a6.73,6.73,0,0,1,6.73,6.72V9Z"/><path class="cls-1" d="M64,58.28a6.73,6.73,0,0,0,6.73-6.72v6.72Z"/></svg>